<svg xmlns="http://www.w3.org/2000/svg" xmlns:xlink="http://www.w3.org/1999/xlink" viewBox="0 0 32 32" width="32" height="32" preserveAspectRatio="xMidYMid meet" style="width: 100%; height: 100%; transform: translate3d(0px, 0px, 0px); content-visibility: visible;"><defs><clipPath id="__lottie_element_365"><rect width="32" height="32" x="0" y="0"/></clipPath></defs><g clip-path="url(#__lottie_element_365)"><g transform="matrix(1,0,0,1,0,0)" opacity="1" style="display: block;"><g opacity="1" transform="matrix(0.999955415725708,0.009445799514651299,-0.009445799514651299,0.999955415725708,0.15184688568115234,-0.1504192352294922)"><path fill="rgb(0,0,0)" fill-opacity="1" d=" M14,16 C14,17.103830337524414 14.896169662475586,18 16,18 C17.103830337524414,18 18,17.103830337524414 18,16 C18,14.896169662475586 17.103830337524414,14 16,14 C14.896169662475586,14 14,14.896169662475586 14,16 C14,16 14,16 14,16z M23.847999572753906,9.529999732971191 C23.847999572753906,9.529999732971191 21.52400016784668,13.253999710083008 21.52400016784668,13.253999710083008 C21.52400016784668,13.253999710083008 19.974000930786133,15.73799991607666 19.974000930786133,15.73799991607666 C19.979999542236328,15.826000213623047 20,15.90999984741211 20,16 C20,18.209999084472656 18.209999084472656,20 16,20 C15.90999984741211,20 15.826000213623047,19.979999542236328 15.73799991607666,19.974000930786133 C15.73799991607666,19.974000930786133 13.251999855041504,21.52400016784668 13.251999855041504,21.52400016784668 C13.251999855041504,21.52400016784668 9.529999732971191,23.847999572753906 9.529999732971191,23.847999572753906 C9.134610176086426,24.093229293823242 8.622641563415527,24.03533172607422 8.291999816894531,23.70800018310547 C7.96217155456543,23.37936782836914 7.904032230377197,22.866079330444336 8.152000427246094,22.472000122070312 C8.152000427246094,22.472000122070312 10.47599983215332,18.74799919128418 10.47599983215332,18.74799919128418 C10.47599983215332,18.74799919128418 12.026000022888184,16.263999938964844 12.026000022888184,16.263999938964844 C12.020000457763672,16.173999786376953 12,16.09000015258789 12,16 C12,13.789999961853027 13.789999961853027,12 16,12 C16.09000015258789,12 16.173999786376953,12.020000457763672 16.261999130249023,12.026000022888184 C16.261999130249023,12.026000022888184 18.74799919128418,10.47599983215332 18.74799919128418,10.47599983215332 C18.74799919128418,10.47599983215332 22.469999313354492,8.152000427246094 22.469999313354492,8.152000427246094 C22.864877700805664,7.906083583831787 23.377180099487305,7.964940071105957 23.70599937438965,8.293999671936035 C24.038000106811523,8.621999740600586 24.09600067138672,9.133999824523926 23.847999572753906,9.529999732971191 C23.847999572753906,9.529999732971191 23.847999572753906,9.529999732971191 23.847999572753906,9.529999732971191z M16,0 C7.164000034332275,0 0,7.164000034332275 0,16 C0,24.836000442504883 7.164000034332275,32 16,32 C24.836000442504883,32 32,24.836000442504883 32,16 C32,7.164000034332275 24.836000442504883,0 16,0 C16,0 16,0 16,0z"/></g></g></g></svg>